<?xml version="1.0" encoding="iso-8859-1"?>
<!-- Generator: Adobe Illustrator 19.0.0, SVG Export Plug-In . SVG Version: 6.00 Build 0)  -->
<svg version="1.1" id="Layer_1" xmlns="http://www.w3.org/2000/svg" xmlns:xlink="http://www.w3.org/1999/xlink" x="0px" y="0px"
	 viewBox="0 0 512 512" style="enable-background:new 0 0 512 512;" xml:space="preserve">
<circle style="fill:#83E46F;" cx="256" cy="256" r="256"/>
<path style="fill:#2AD827;" d="M512,256c0-1.717-0.031-3.427-0.065-5.137L347.121,86.05c-36.41-40.276-88.495-31.21-88.495-31.21
	S137.632,33.772,135.567,198.477c-3.874,4.731-5.806,11.019-4.756,17.493l4.287,26.417c-1.101,46.719-4.144,75.681-7.577,93.598
	l35.025,33.792c-34.13,16.129-59.392,48.222-65.985,86.504c0.134,0.107,0.267,0.216,0.402,0.324c0.884,0.702,1.775,1.396,2.67,2.085
	c0.348,0.268,0.697,0.535,1.046,0.802c1.032,0.786,2.066,1.568,3.109,2.34c0,0.002-0.001,0.004-0.001,0.007
	C146.334,493.353,198.987,512,256,512C397.385,512,512,397.385,512,256z"/>
<g>
	<path style="fill:#FF3200;" d="M131.618,347.066h-0.717C130.901,347.066,131.16,347.154,131.618,347.066z"/>
	<path style="fill:#FF3200;" d="M386.358,347.066h-0.716C386.099,347.154,386.358,347.066,386.358,347.066z"/>
</g>
<path style="fill:#FF4F19;" d="M389.741,335.986H127.522c4.315-22.52,8.017-62.457,8.017-133.217
	c0-169.363,123.088-147.928,123.088-147.928s123.098-21.434,123.098,147.928C381.724,273.528,385.426,313.465,389.741,335.986z"/>
<path style="fill:#EE2600;" d="M389.74,335.99H256V54.5c1.7,0.18,2.63,0.34,2.63,0.34s123.09-21.43,123.09,147.93
	C381.72,273.53,385.43,313.47,389.74,335.99z"/>
<rect x="218.73" y="319.59" style="fill:#FFC473;" width="74.54" height="94.04"/>
<rect x="256" y="319.59" style="fill:#FFAA20;" width="37.27" height="94.04"/>
<path style="fill:#FFDBA9;" d="M351.952,195.528c-4.006-58.974-54.301-92.445-95.952-92.445s-91.945,33.471-95.952,92.445
	c-10.778,2.019-18.426,12.091-17.227,23.167l1.856,17.136c1.259,11.626,11.801,20.107,23.426,18.848l2.002-0.217
	c23.798,61.947,62.203,77.896,85.894,81.519c23.691-3.623,62.096-19.572,85.895-81.519l2.002,0.217
	c11.625,1.259,22.167-7.223,23.426-18.848l1.856-17.136C370.378,207.62,362.73,197.547,351.952,195.528z"/>
<g>
	<path style="fill:#FFC473;" d="M256,335.982c23.691-3.623,62.096-19.572,85.895-81.519l2.002,0.217
		c11.625,1.259,22.167-7.222,23.426-18.848l1.856-17.136c1.199-11.075-6.449-21.148-17.227-23.167
		c-4.006-58.974-54.301-92.445-95.952-92.445c-0.001,0-0.002,0-0.003,0v232.898C255.998,335.981,255.999,335.982,256,335.982z"/>
	<rect x="191.96" y="200.97" style="fill:#FFC473;" width="49.47" height="21.437"/>
</g>
<polygon style="fill:#FFA91F;" points="255.997,200.968 255.997,269.105 277.434,269.105 277.434,222.404 324.134,222.404 
	324.134,200.968 "/>
<path style="fill:#57555C;" d="M415.44,456.29C371.7,491.16,316.28,512,256,512s-115.7-20.84-159.44-55.71
	c9.52-55.3,57.99-97.7,115.89-97.7h87.1C357.45,358.59,405.92,400.99,415.44,456.29z"/>
<path style="fill:#2A2A2C;" d="M415.44,456.29C371.7,491.16,316.28,512,256,512V358.59h43.55
	C357.45,358.59,405.92,400.99,415.44,456.29z"/>
<path style="fill:#FF4F19;" d="M163.421,121.02c0,0,71.055,66.584,200.98,72.703c0,0,9.461-114.024-108.401-114.024
	C178.483,79.699,163.421,121.02,163.421,121.02z"/>
<path style="fill:#EE2600;" d="M364.4,193.72c-42.61-2.01-78.88-10.52-108.4-21.05V79.7C373.86,79.7,364.4,193.72,364.4,193.72z"/>
<polygon style="fill:#FFFFFF;" points="218.729,358.589 255.997,500.228 293.271,358.589 "/>
<polygon style="fill:#E1E1E3;" points="293.27,358.59 256,500.23 256,358.59 "/>
<path style="fill:#57555C;" d="M366.386,191.382v-32.005c0-53.143-43.234-96.377-96.377-96.377h-28.017
	c-53.143,0-96.378,43.234-96.378,96.377v32.135c-10.062,3.358-16.554,13.669-14.803,24.459l5.508,33.937
	c1.359,8.376,7.341,14.903,14.91,17.409V280c0,15.99,13.01,29,29,29h34.967c2.059,3.67,5.984,6.167,10.47,6.167H236
	c6.6,0,12-5.4,12-12v-0.333c0-6.6-5.4-12-12-12h-10.333c-4.485,0-8.411,2.497-10.47,6.167H180.23c-9.374,0-17-7.626-17-17v-12.112
	l4.696-0.762c2.486-0.403,4.174-2.745,3.77-5.231l-11.115-68.485c-0.275-1.695-1.459-2.999-2.967-3.542v-30.491
	c0-46.525,37.852-84.377,84.378-84.377h28.017c46.525,0,84.377,37.852,84.377,84.377v30.639c-1.314,0.619-2.312,1.852-2.563,3.394
	l-11.115,68.485c-0.403,2.486,1.285,4.828,3.77,5.231l6.298,1.022c11.976,1.944,23.365-6.265,25.309-18.241l5.508-33.937
	C383.368,205.036,376.678,194.596,366.386,191.382z"/>
<path style="fill:#2A2A2C;" d="M366.386,191.382v-32.005c0-53.143-43.234-96.377-96.377-96.377H256v12h14.009
	c46.525,0,84.377,37.852,84.377,84.377v30.639c-1.314,0.619-2.312,1.852-2.563,3.394l-11.115,68.485
	c-0.403,2.486,1.285,4.828,3.77,5.231l6.298,1.022c11.976,1.944,23.365-6.265,25.309-18.241l5.508-33.937
	C383.368,205.036,376.678,194.596,366.386,191.382z"/>
<g>
</g>
<g>
</g>
<g>
</g>
<g>
</g>
<g>
</g>
<g>
</g>
<g>
</g>
<g>
</g>
<g>
</g>
<g>
</g>
<g>
</g>
<g>
</g>
<g>
</g>
<g>
</g>
<g>
</g>
</svg>
