<?xml version="1.0" encoding="iso-8859-1"?>
<!-- Generator: Adobe Illustrator 19.0.0, SVG Export Plug-In . SVG Version: 6.00 Build 0)  -->
<svg version="1.1" id="Layer_1" xmlns="http://www.w3.org/2000/svg" xmlns:xlink="http://www.w3.org/1999/xlink" x="0px" y="0px"
	 viewBox="0 0 512 512" style="enable-background:new 0 0 512 512;" xml:space="preserve">
<circle style="fill:#FFED97;" cx="256" cy="256" r="256"/>
<path style="fill:#FFDB2D;" d="M512,256c0-0.074-0.003-0.147-0.003-0.221L307.189,50.971C294.821,36.519,276.468,27.333,256,27.333
	c-37.154,0-67.381,30.227-67.381,67.381v35.668h-62.306v317.284l52.47,52.47C203.15,507.836,229.088,512,256,512
	C397.385,512,512,397.385,512,256z"/>
<rect x="126.31" y="130.38" style="fill:#00A6FF;" width="259.37" height="252.12"/>
<rect x="256" y="130.38" style="fill:#0088FF;" width="129.69" height="252.12"/>
<path style="fill:#FF4F19;" d="M323.381,164.369h-18V94.714c0-27.229-22.152-49.381-49.381-49.381s-49.381,22.152-49.381,49.381
	v69.654h-18V94.714c0-37.154,30.227-67.381,67.381-67.381s67.381,30.227,67.381,67.381L323.381,164.369L323.381,164.369z"/>
<path style="fill:#EE2600;" d="M323.38,94.71v69.66h-18V94.71c0-27.22-22.15-49.38-49.38-49.38v-18
	C293.15,27.33,323.38,57.56,323.38,94.71z"/>
<path style="fill:#FFFFFF;" d="M205.258,205.813H189.98c-7.196,0-13.083-5.888-13.083-13.083v-27.6
	c0-7.196,5.887-13.083,13.083-13.083h15.278c7.196,0,13.083,5.887,13.083,13.083v27.599
	C218.341,199.925,212.454,205.813,205.258,205.813z"/>
<path style="fill:#E1E1E3;" d="M322.02,205.813h-15.278c-7.196,0-13.083-5.888-13.083-13.083v-27.6
	c0-7.196,5.888-13.083,13.083-13.083h15.278c7.196,0,13.083,5.887,13.083,13.083v27.599
	C335.103,199.925,329.216,205.813,322.02,205.813z"/>
<rect x="126.31" y="378.16" style="fill:#0088FF;" width="259.37" height="69.51"/>
<rect x="256" y="378.16" style="fill:#006EF5;" width="129.69" height="69.51"/>
<g>
</g>
<g>
</g>
<g>
</g>
<g>
</g>
<g>
</g>
<g>
</g>
<g>
</g>
<g>
</g>
<g>
</g>
<g>
</g>
<g>
</g>
<g>
</g>
<g>
</g>
<g>
</g>
<g>
</g>
</svg>
